<?xml version="1.0" encoding="UTF-8" standalone="no"?>
<!-- Created with Inkscape (http://www.inkscape.org/) -->

<svg
   width="500"
   height="500"
   viewBox="0 0 132.29166 132.29167"
   version="1.1"
   id="svg1"
   inkscape:version="1.4.2 (f4327f4, 2025-05-13)"
   sodipodi:docname="arco.svg"
   xmlns:inkscape="http://www.inkscape.org/namespaces/inkscape"
   xmlns:sodipodi="http://sodipodi.sourceforge.net/DTD/sodipodi-0.dtd"
   xmlns="http://www.w3.org/2000/svg"
   xmlns:svg="http://www.w3.org/2000/svg">
  <sodipodi:namedview
     id="namedview1"
     pagecolor="#ffffff"
     bordercolor="#000000"
     borderopacity="0.25"
     inkscape:showpageshadow="2"
     inkscape:pageopacity="0.0"
     inkscape:pagecheckerboard="0"
     inkscape:deskcolor="#d1d1d1"
     inkscape:document-units="mm"
     inkscape:zoom="0.73851712"
     inkscape:cx="-167.227"
     inkscape:cy="344.60948"
     inkscape:window-width="1920"
     inkscape:window-height="1009"
     inkscape:window-x="-8"
     inkscape:window-y="-8"
     inkscape:window-maximized="1"
     inkscape:current-layer="layer1" />
  <defs
     id="defs1">
    <inkscape:path-effect
       effect="powerstroke"
       message=""
       id="path-effect59"
       is_visible="true"
       lpeversion="1.3"
       scale_width="1"
       interpolator_type="CentripetalCatmullRom"
       interpolator_beta="0.2"
       start_linecap_type="zerowidth"
       end_linecap_type="zerowidth"
       offset_points="0.94620973,-1.5398461 | 2,0.065499999 | 3.3456051,-1.3268144"
       linejoin_type="round"
       miter_limit="4"
       not_jump="false"
       sort_points="true" />
    <inkscape:path-effect
       effect="spiro"
       id="path-effect57"
       is_visible="true"
       lpeversion="1" />
    <inkscape:path-effect
       effect="powerstroke"
       message=""
       id="path-effect55"
       is_visible="true"
       lpeversion="1.3"
       scale_width="1"
       interpolator_type="CentripetalCatmullRom"
       interpolator_beta="0.2"
       start_linecap_type="zerowidth"
       end_linecap_type="zerowidth"
       offset_points="0.80943255,1.298739 | 2.1125056,-0.14037048 | 3.3194959,1.1598996"
       linejoin_type="round"
       miter_limit="4"
       not_jump="false"
       sort_points="true" />
    <inkscape:path-effect
       effect="spiro"
       id="path-effect53"
       is_visible="true"
       lpeversion="1" />
    <inkscape:path-effect
       effect="powerstroke"
       message=""
       id="path-effect43"
       is_visible="true"
       lpeversion="1.3"
       scale_width="1"
       interpolator_type="CentripetalCatmullRom"
       interpolator_beta="0.2"
       start_linecap_type="zerowidth"
       end_linecap_type="zerowidth"
       offset_points="0.94620973,-1.5398461 | 2,0.065499999 | 3.3456051,-1.3268144"
       linejoin_type="round"
       miter_limit="4"
       not_jump="false"
       sort_points="true" />
    <inkscape:path-effect
       effect="spiro"
       id="path-effect42"
       is_visible="true"
       lpeversion="1" />
    <inkscape:path-effect
       effect="spiro"
       id="path-effect41"
       is_visible="true"
       lpeversion="1" />
    <inkscape:path-effect
       effect="powerstroke"
       message=""
       id="path-effect40"
       is_visible="true"
       lpeversion="1.3"
       scale_width="1"
       interpolator_type="CentripetalCatmullRom"
       interpolator_beta="0.2"
       start_linecap_type="zerowidth"
       end_linecap_type="zerowidth"
       offset_points="0.80943255,1.298739 | 2.1125056,-0.14037048 | 3.3194959,1.1598996"
       linejoin_type="round"
       miter_limit="4"
       not_jump="false"
       sort_points="true" />
    <inkscape:path-effect
       effect="spiro"
       id="path-effect39"
       is_visible="true"
       lpeversion="1" />
    <clipPath
       clipPathUnits="userSpaceOnUse"
       id="clipPath47">
      <path
         id="path48"
         style="fill:#ff0000;fill-opacity:1;fill-rule:nonzero;stroke:none;stroke-width:0.276294"
         d="M 12.297705,6.8064646 V 57.135176 c 0.21046,-0.09155 0.432364,-0.137459 0.654249,-0.137459 0.976699,0 1.953169,0.886992 1.953169,2.660303 v 3.873664 5.099431 c -0.0535,1.103704 0.06114,2.199474 0.171874,3.296439 0.01316,0.385765 0.09662,0.763812 0.168493,1.142566 0.506038,2.666576 -1.6209,3.653949 -2.947785,2.418458 V 122.88413 H 68.428483 V 6.8064646 Z" />
    </clipPath>
    <clipPath
       clipPathUnits="userSpaceOnUse"
       id="clipPath50">
      <path
         id="path50"
         style="fill:#ff0000;fill-opacity:1;fill-rule:nonzero;stroke:none;stroke-width:0.27533"
         d="M 64.487451,6.9237702 V 122.94408 H 125.33628 V 77.791281 c -2.17791,1.140577 -4.25727,-1.086572 -1.87633,-3.189988 0.069,-0.06093 0.19192,-0.313122 0.24119,-0.23926 0.24648,-0.208209 0.0794,-0.98007 0.11807,-1.246953 -0.018,-0.800729 -0.0435,-1.601687 -0.1024,-2.400887 -0.078,-1.015688 -0.20685,-2.027026 -0.26749,-3.043743 -0.005,-1.001318 -0.0105,-2.002882 -0.0375,-3.003949 -0.0321,-1.123495 -0.0749,-2.247194 -0.18019,-3.367239 -0.0985,-0.936789 -0.22872,-1.867828 -0.49077,-2.779675 -0.52335,-1.821106 0.30728,-2.840382 1.35086,-2.881993 0.4049,-0.01614 0.84212,0.114732 1.24455,0.403075 V 6.9237702 Z" />
    </clipPath>
  </defs>
  <g
     inkscape:label="Capa 1"
     inkscape:groupmode="layer"
     id="layer1">
    <path
       style="fill:none;fill-opacity:1;stroke:#000000;stroke-width:0.131;stroke-opacity:1"
       d=""
       id="path40"
       inkscape:path-effect="#path-effect41"
       inkscape:original-d="M 99.238841,17.913148 Z" />
    <g
       id="g59">
      <path
         style="fill:#ffffff;fill-opacity:1;fill-rule:nonzero;stroke:none;stroke-width:0.131;stroke-opacity:1"
         d="m 64.487334,7.1652592 c 4.534996,-0.058351 12.448227,0.5744418 21.618162,4.1643018 4.318265,1.690521 8.313428,3.797173 12.007776,6.205886 2.228328,1.452866 4.473478,3.091762 6.668318,4.95426 5.30607,4.50263 10.12999,10.162889 13.82183,16.926397 3.59381,6.583908 5.87987,13.803555 6.53645,21.122165 0.16109,1.812779 0.22119,3.612106 0.18686,5.387145 -0.11815,6.108334 -1.361,12.257444 -3.59762,18.096884 -2.94634,7.692403 -7.42644,14.380009 -12.73946,19.773352 -3.73948,3.79602 -7.77067,6.83624 -11.70489,9.30332 -2.348469,1.47269 -4.821926,2.83606 -7.436376,4.0572 -9.558789,4.46466 -17.957875,5.58033 -22.85321,5.72803 4.790525,0.19675 13.535883,0.1394 23.645418,-3.89443 2.766719,-1.10395 5.404423,-2.4198 7.863439,-3.91726 4.134709,-2.5179 8.220569,-5.84364 11.871899,-9.98618 5.18953,-5.887664 9.18022,-13.065441 11.68167,-20.949147 1.90137,-5.992479 2.86767,-12.15133 2.98844,-18.217278 0.0352,-1.765851 -6.3e-4,-3.556578 -0.11837,-5.365292 -0.46819,-7.287187 -2.22593,-14.652928 -5.38253,-21.608048 -3.23886,-7.136383 -7.74965,-13.386338 -13.13189,-18.307529 -2.2224,-2.032022 -4.54433,-3.792903 -6.893812,-5.287527 C 95.636655,12.881479 91.31778,10.89269 86.756007,9.472325 77.054376,6.4516015 68.938547,6.7873686 64.487334,7.1652592 Z"
         id="path39"
         transform="matrix(0.92345905,0,0,1,11.742918,1.0739342)"
         clip-path="url(#clipPath50)" />
      <path
         style="fill:#ffffff;fill-opacity:1;fill-rule:nonzero;stroke:none;stroke-width:0.131;stroke-opacity:1"
         d="m 61.62123,122.8842 c -3.243678,-0.37652 -8.917279,-1.18113 -15.610944,-3.86955 -6.784894,-2.72507 -12.927688,-6.72235 -17.749132,-11.54707 -0.50699,-0.50733 -1.001548,-1.02692 -1.483444,-1.55806 -8.638379,-9.521216 -13.182382,-22.668404 -14.173216,-36.053487 -0.549763,-7.319221 0.07521,-15.252309 2.480601,-23.284755 2.333438,-7.792161 6.134629,-14.941609 11.127764,-20.886309 3.891423,-4.63303 8.249161,-8.230633 12.485553,-10.850935 2.086941,-1.290818 4.287847,-2.43892 6.568226,-3.43242 C 55.133471,7.1028977 63.774399,6.7935338 68.428226,6.8069962 63.664872,7.2043884 55.493833,8.7454912 46.264313,13.505122 44.134615,14.6034 42.089412,15.798394 40.1175,17.07634 c -3.991227,2.586611 -8.252304,5.862738 -12.222599,10.09953 -5.092258,5.434064 -9.337662,12.073021 -12.131669,19.622039 -2.874928,7.767656 -3.918056,15.71974 -3.289318,23.068614 1.188767,13.720393 8.122487,25.050635 16.54978,33.963947 0.466625,0.49353 0.939744,0.98117 1.418695,1.46301 4.597291,4.62503 9.924481,8.81409 16.288267,12.15961 6.209047,3.26416 11.667701,4.78089 14.890574,5.43111 z"
         id="path41"
         transform="matrix(0.91702532,0,0,1,-5.7866048,1.0747889)"
         clip-path="url(#clipPath47)" />
      <path
         style="fill:#ffffff;fill-opacity:1;fill-rule:nonzero;stroke:none;stroke-width:0.131;stroke-opacity:1"
         d="m 64.487334,7.1652592 c 4.534996,-0.058351 12.448227,0.5744418 21.618162,4.1643018 4.318265,1.690521 8.313428,3.797173 12.007776,6.205886 2.228328,1.452866 4.473478,3.091762 6.668318,4.95426 5.30607,4.50263 10.12999,10.162889 13.82183,16.926397 3.59381,6.583908 5.87987,13.803555 6.53645,21.122165 0.16109,1.812779 0.22119,3.612106 0.18686,5.387145 -0.11815,6.108334 -1.361,12.257444 -3.59762,18.096884 -2.94634,7.692403 -7.42644,14.380009 -12.73946,19.773352 -3.73948,3.79602 -7.77067,6.83624 -11.70489,9.30332 -2.348469,1.47269 -4.821926,2.83606 -7.436376,4.0572 -9.558789,4.46466 -17.957875,5.58033 -22.85321,5.72803 4.790525,0.19675 13.535883,0.1394 23.645418,-3.89443 2.766719,-1.10395 5.404423,-2.4198 7.863439,-3.91726 4.134709,-2.5179 8.220569,-5.84364 11.871899,-9.98618 5.18953,-5.887664 9.18022,-13.065441 11.68167,-20.949147 1.90137,-5.992479 2.86767,-12.15133 2.98844,-18.217278 0.0352,-1.765851 -6.3e-4,-3.556578 -0.11837,-5.365292 -0.46819,-7.287187 -2.22593,-14.652928 -5.38253,-21.608048 -3.23886,-7.136383 -7.74965,-13.386338 -13.13189,-18.307529 -2.2224,-2.032022 -4.54433,-3.792903 -6.893812,-5.287527 C 95.636655,12.881479 91.31778,10.89269 86.756007,9.472325 77.054376,6.4516015 68.938547,6.7873686 64.487334,7.1652592 Z"
         id="path51"
         transform="matrix(0.92345905,0,0,1,11.742918,1.0747889)"
         clip-path="url(#clipPath50)" />
      <path
         style="fill:#ffffff;fill-opacity:1;fill-rule:nonzero;stroke:none;stroke-width:0.131;stroke-opacity:1"
         d="m 61.62123,122.8842 c -3.243678,-0.37652 -8.917279,-1.18113 -15.610944,-3.86955 -6.784894,-2.72507 -12.927688,-6.72235 -17.749132,-11.54707 -0.50699,-0.50733 -1.001548,-1.02692 -1.483444,-1.55806 -8.638379,-9.521216 -13.182382,-22.668404 -14.173216,-36.053487 -0.549763,-7.319221 0.07521,-15.252309 2.480601,-23.284755 2.333438,-7.792161 6.134629,-14.941609 11.127764,-20.886309 3.891423,-4.63303 8.249161,-8.230633 12.485553,-10.850935 2.086941,-1.290818 4.287847,-2.43892 6.568226,-3.43242 C 55.133471,7.1028977 63.774399,6.7935338 68.428226,6.8069962 63.664872,7.2043884 55.493833,8.7454912 46.264313,13.505122 44.134615,14.6034 42.089412,15.798394 40.1175,17.07634 c -3.991227,2.586611 -8.252304,5.862738 -12.222599,10.09953 -5.092258,5.434064 -9.337662,12.073021 -12.131669,19.622039 -2.874928,7.767656 -3.918056,15.71974 -3.289318,23.068614 1.188767,13.720393 8.122487,25.050635 16.54978,33.963947 0.466625,0.49353 0.939744,0.98117 1.418695,1.46301 4.597291,4.62503 9.924481,8.81409 16.288267,12.15961 6.209047,3.26416 11.667701,4.78089 14.890574,5.43111 z"
         id="path52"
         transform="matrix(0.91702532,0,0,1,-5.7866048,1.1330296)"
         clip-path="url(#clipPath47)" />
    </g>
  </g>
</svg>
