<?xml version="1.0" encoding="UTF-8" standalone="no"?>
<!-- Created with Inkscape (http://www.inkscape.org/) -->

<svg
   width="500"
   height="500"
   viewBox="0 0 132.29166 132.29167"
   version="1.1"
   id="svg1"
   sodipodi:docname="logo2.svg"
   inkscape:export-filename="logo5.png"
   inkscape:export-xdpi="96"
   inkscape:export-ydpi="96"
   inkscape:version="1.4.2 (f4327f4, 2025-05-13)"
   xmlns:inkscape="http://www.inkscape.org/namespaces/inkscape"
   xmlns:sodipodi="http://sodipodi.sourceforge.net/DTD/sodipodi-0.dtd"
   xmlns:xlink="http://www.w3.org/1999/xlink"
   xmlns="http://www.w3.org/2000/svg"
   xmlns:svg="http://www.w3.org/2000/svg">
  <sodipodi:namedview
     id="namedview1"
     pagecolor="#ffffff"
     bordercolor="#000000"
     borderopacity="0.25"
     inkscape:showpageshadow="2"
     inkscape:pageopacity="0.0"
     inkscape:pagecheckerboard="0"
     inkscape:deskcolor="#d1d1d1"
     inkscape:document-units="mm"
     inkscape:zoom="0.52221046"
     inkscape:cx="-225.00507"
     inkscape:cy="177.13165"
     inkscape:window-width="1920"
     inkscape:window-height="1009"
     inkscape:window-x="-8"
     inkscape:window-y="-8"
     inkscape:window-maximized="1"
     inkscape:current-layer="layer1" />
  <defs
     id="defs1">
    <linearGradient
       id="linearGradient63"
       inkscape:collect="always">
      <stop
         style="stop-color:#f36f00;stop-opacity:1;"
         offset="0"
         id="stop63" />
      <stop
         style="stop-color:#fbe726;stop-opacity:1;"
         offset="1"
         id="stop64" />
    </linearGradient>
    <inkscape:path-effect
       effect="powerstroke"
       message=""
       id="path-effect59"
       is_visible="true"
       lpeversion="1.3"
       scale_width="1"
       interpolator_type="CentripetalCatmullRom"
       interpolator_beta="0.2"
       start_linecap_type="zerowidth"
       end_linecap_type="zerowidth"
       offset_points="0.94620973,-1.5398461 | 2,0.065499999 | 3.3456051,-1.3268144"
       linejoin_type="round"
       miter_limit="4"
       not_jump="false"
       sort_points="true" />
    <inkscape:path-effect
       effect="spiro"
       id="path-effect57"
       is_visible="true"
       lpeversion="1" />
    <inkscape:path-effect
       effect="powerstroke"
       message=""
       id="path-effect55"
       is_visible="true"
       lpeversion="1.3"
       scale_width="1"
       interpolator_type="CentripetalCatmullRom"
       interpolator_beta="0.2"
       start_linecap_type="zerowidth"
       end_linecap_type="zerowidth"
       offset_points="0.80943255,1.298739 | 2.1125056,-0.14037048 | 3.3194959,1.1598996"
       linejoin_type="round"
       miter_limit="4"
       not_jump="false"
       sort_points="true" />
    <inkscape:path-effect
       effect="spiro"
       id="path-effect53"
       is_visible="true"
       lpeversion="1" />
    <inkscape:path-effect
       effect="powerstroke"
       message=""
       id="path-effect43"
       is_visible="true"
       lpeversion="1.3"
       scale_width="1"
       interpolator_type="CentripetalCatmullRom"
       interpolator_beta="0.2"
       start_linecap_type="zerowidth"
       end_linecap_type="zerowidth"
       offset_points="0.94620973,-1.5398461 | 2,0.065499999 | 3.3456051,-1.3268144"
       linejoin_type="round"
       miter_limit="4"
       not_jump="false"
       sort_points="true" />
    <inkscape:path-effect
       effect="spiro"
       id="path-effect42"
       is_visible="true"
       lpeversion="1" />
    <inkscape:path-effect
       effect="spiro"
       id="path-effect41"
       is_visible="true"
       lpeversion="1" />
    <inkscape:path-effect
       effect="powerstroke"
       message=""
       id="path-effect40"
       is_visible="true"
       lpeversion="1.3"
       scale_width="1"
       interpolator_type="CentripetalCatmullRom"
       interpolator_beta="0.2"
       start_linecap_type="zerowidth"
       end_linecap_type="zerowidth"
       offset_points="0.80943255,1.298739 | 2.1125056,-0.14037048 | 3.3194959,1.1598996"
       linejoin_type="round"
       miter_limit="4"
       not_jump="false"
       sort_points="true" />
    <inkscape:path-effect
       effect="spiro"
       id="path-effect39"
       is_visible="true"
       lpeversion="1" />
    <clipPath
       clipPathUnits="userSpaceOnUse"
       id="clipPath47">
      <path
         id="path48"
         style="fill:#ff0000;fill-opacity:1;fill-rule:nonzero;stroke:none;stroke-width:0.276294"
         d="M 12.297705,6.8064646 V 57.135176 c 0.21046,-0.09155 0.432364,-0.137459 0.654249,-0.137459 0.976699,0 1.953169,0.886992 1.953169,2.660303 v 3.873664 5.099431 c -0.0535,1.103704 0.06114,2.199474 0.171874,3.296439 0.01316,0.385765 0.09662,0.763812 0.168493,1.142566 0.506038,2.666576 -1.6209,3.653949 -2.947785,2.418458 V 122.88413 H 68.428483 V 6.8064646 Z" />
    </clipPath>
    <clipPath
       clipPathUnits="userSpaceOnUse"
       id="clipPath50">
      <path
         id="path50"
         style="fill:#ff0000;fill-opacity:1;fill-rule:nonzero;stroke:none;stroke-width:0.27533"
         d="M 64.487451,6.9237702 V 122.94408 H 125.33628 V 77.791281 c -2.17791,1.140577 -4.25727,-1.086572 -1.87633,-3.189988 0.069,-0.06093 0.19192,-0.313122 0.24119,-0.23926 0.24648,-0.208209 0.0794,-0.98007 0.11807,-1.246953 -0.018,-0.800729 -0.0435,-1.601687 -0.1024,-2.400887 -0.078,-1.015688 -0.20685,-2.027026 -0.26749,-3.043743 -0.005,-1.001318 -0.0105,-2.002882 -0.0375,-3.003949 -0.0321,-1.123495 -0.0749,-2.247194 -0.18019,-3.367239 -0.0985,-0.936789 -0.22872,-1.867828 -0.49077,-2.779675 -0.52335,-1.821106 0.30728,-2.840382 1.35086,-2.881993 0.4049,-0.01614 0.84212,0.114732 1.24455,0.403075 V 6.9237702 Z" />
    </clipPath>
    <linearGradient
       inkscape:collect="always"
       xlink:href="#linearGradient63"
       id="linearGradient64"
       x1="52.643402"
       y1="73.496254"
       x2="77.297264"
       y2="70.03138"
       gradientUnits="userSpaceOnUse" />
  </defs>
  <g
     inkscape:label="Capa 1"
     inkscape:groupmode="layer"
     id="layer1">
    <path
       style="fill:#ffffff;fill-opacity:1;fill-rule:nonzero;stroke:none;stroke-width:0.131;stroke-opacity:1"
       d="m 64.487334,7.1652592 c 4.534996,-0.058351 12.448227,0.5744418 21.618162,4.1643018 4.318265,1.690521 8.313428,3.797173 12.007776,6.205886 2.228328,1.452866 4.473478,3.091762 6.668318,4.95426 5.30607,4.50263 10.12999,10.162889 13.82183,16.926397 3.59381,6.583908 5.87987,13.803555 6.53645,21.122165 0.16109,1.812779 0.22119,3.612106 0.18686,5.387145 -0.11815,6.108334 -1.361,12.257444 -3.59762,18.096884 -2.94634,7.692403 -7.42644,14.380009 -12.73946,19.773352 -3.73948,3.79602 -7.77067,6.83624 -11.70489,9.30332 -2.348469,1.47269 -4.821926,2.83606 -7.436376,4.0572 -9.558789,4.46466 -17.957875,5.58033 -22.85321,5.72803 4.790525,0.19675 13.535883,0.1394 23.645418,-3.89443 2.766719,-1.10395 5.404423,-2.4198 7.863439,-3.91726 4.134709,-2.5179 8.220569,-5.84364 11.871899,-9.98618 5.18953,-5.887664 9.18022,-13.065441 11.68167,-20.949147 1.90137,-5.992479 2.86767,-12.15133 2.98844,-18.217278 0.0352,-1.765851 -6.3e-4,-3.556578 -0.11837,-5.365292 -0.46819,-7.287187 -2.22593,-14.652928 -5.38253,-21.608048 -3.23886,-7.136383 -7.74965,-13.386338 -13.13189,-18.307529 -2.2224,-2.032022 -4.54433,-3.792903 -6.893812,-5.287527 C 95.636655,12.881479 91.31778,10.89269 86.756007,9.472325 77.054376,6.4516015 68.938547,6.7873686 64.487334,7.1652592 Z"
       id="path39"
       transform="matrix(0.92345905,0,0,1,11.742918,1.0739342)"
       clip-path="url(#clipPath50)"
       inkscape:original-d="M 64.487334,7.1652592 C 84.430639,25.43667 105.09047,42.991555 125.03377,60.54644 144.97708,78.101327 86.102533,102.10495 66.995174,122.8842"
       inkscape:path-effect="#path-effect39;#path-effect40" />
    <path
       style="fill:none;fill-opacity:1;stroke:#000000;stroke-width:0.131;stroke-opacity:1"
       d=""
       id="path40"
       inkscape:path-effect="#path-effect41"
       inkscape:original-d="M 99.238841,17.913148 Z" />
    <path
       style="fill:#ffffff;fill-opacity:1;fill-rule:nonzero;stroke:none;stroke-width:0.131;stroke-opacity:1"
       d="m 64.487334,7.1652592 c 4.534996,-0.058351 12.448227,0.5744418 21.618162,4.1643018 4.318265,1.690521 8.313428,3.797173 12.007776,6.205886 2.228328,1.452866 4.473478,3.091762 6.668318,4.95426 5.30607,4.50263 10.12999,10.162889 13.82183,16.926397 3.59381,6.583908 5.87987,13.803555 6.53645,21.122165 0.16109,1.812779 0.22119,3.612106 0.18686,5.387145 -0.11815,6.108334 -1.361,12.257444 -3.59762,18.096884 -2.94634,7.692403 -7.42644,14.380009 -12.73946,19.773352 -3.73948,3.79602 -7.77067,6.83624 -11.70489,9.30332 -2.348469,1.47269 -4.821926,2.83606 -7.436376,4.0572 -9.558789,4.46466 -17.957875,5.58033 -22.85321,5.72803 4.790525,0.19675 13.535883,0.1394 23.645418,-3.89443 2.766719,-1.10395 5.404423,-2.4198 7.863439,-3.91726 4.134709,-2.5179 8.220569,-5.84364 11.871899,-9.98618 5.18953,-5.887664 9.18022,-13.065441 11.68167,-20.949147 1.90137,-5.992479 2.86767,-12.15133 2.98844,-18.217278 0.0352,-1.765851 -6.3e-4,-3.556578 -0.11837,-5.365292 -0.46819,-7.287187 -2.22593,-14.652928 -5.38253,-21.608048 -3.23886,-7.136383 -7.74965,-13.386338 -13.13189,-18.307529 -2.2224,-2.032022 -4.54433,-3.792903 -6.893812,-5.287527 C 95.636655,12.881479 91.31778,10.89269 86.756007,9.472325 77.054376,6.4516015 68.938547,6.7873686 64.487334,7.1652592 Z"
       id="path51"
       transform="matrix(0.92345905,0,0,1,11.742918,1.0747889)"
       clip-path="url(#clipPath50)"
       inkscape:original-d="M 64.487334,7.1652592 C 84.430639,25.43667 105.09047,42.991555 125.03377,60.54644 144.97708,78.101327 86.102533,102.10495 66.995174,122.8842"
       inkscape:path-effect="#path-effect53;#path-effect55" />
    <text
       xml:space="preserve"
       style="font-size:38.1px;line-height:0px;font-family:'Nixie One';-inkscape-font-specification:'Nixie One, Normal';text-align:start;writing-mode:lr-tb;direction:ltr;text-anchor:start;fill:#ffffff;fill-opacity:1;stroke:#ffffff;stroke-width:0.431;stroke-opacity:1;stroke-dasharray:none"
       x="22.928831"
       y="55.172497"
       id="text59"><tspan
         id="tspan59"
         style="font-size:38.1px;fill:#ffffff;fill-opacity:1;stroke-width:0.431;stroke-dasharray:none;stroke:#ffffff;stroke-opacity:1"
         x="22.928831"
         y="55.172497"
         sodipodi:role="line">Veta</tspan><tspan
         style="font-size:38.1px;fill:#ffffff;fill-opacity:1;stroke-width:0.431;stroke-dasharray:none;stroke:#ffffff;stroke-opacity:1"
         x="22.928831"
         y="55.172497"
         id="tspan60"
         sodipodi:role="line" /></text>
    <text
       xml:space="preserve"
       style="font-size:38.1px;line-height:0px;font-family:'Nixie One';-inkscape-font-specification:'Nixie One, Normal';text-align:start;writing-mode:lr-tb;direction:ltr;text-anchor:start;fill:url(#linearGradient64);fill-opacity:1;stroke:none;stroke-width:0.431;stroke-opacity:1;stroke-dasharray:none"
       x="50.873337"
       y="84.908318"
       id="text61"><tspan
         sodipodi:role="line"
         id="tspan61"
         style="font-size:38.1px;fill:url(#linearGradient64);fill-opacity:1;stroke-width:0.431;stroke:none;stroke-dasharray:none"
         x="50.873337"
         y="84.908318">&amp;</tspan><tspan
         sodipodi:role="line"
         style="font-size:38.1px;fill:url(#linearGradient64);fill-opacity:1;stroke-width:0.431;stroke:none;stroke-dasharray:none"
         x="50.873337"
         y="84.908318"
         id="tspan62" /></text>
    <text
       xml:space="preserve"
       style="font-size:38.1px;line-height:0px;font-family:'Nixie One';-inkscape-font-specification:'Nixie One, Normal';text-align:start;writing-mode:lr-tb;direction:ltr;text-anchor:start;fill:#ffffff;fill-opacity:1;stroke:#ffffff;stroke-width:0.431;stroke-opacity:1;stroke-dasharray:none"
       x="32.243668"
       y="110.70325"
       id="text63"><tspan
         sodipodi:role="line"
         id="tspan63"
         style="font-size:38.1px;fill:#ffffff;fill-opacity:1;stroke-width:0.431;stroke-dasharray:none;stroke:#ffffff;stroke-opacity:1"
         x="32.243668"
         y="110.70325">Lux</tspan></text>
  </g>
</svg>
