<?xml version="1.0" encoding="UTF-8" standalone="no"?>
<!-- Created with Inkscape (http://www.inkscape.org/) -->

<svg
   width="500"
   height="500"
   viewBox="0 0 132.29166 132.29167"
   version="1.1"
   id="svg1"
   sodipodi:docname="logo.svg"
   inkscape:version="1.4.2 (f4327f4, 2025-05-13)"
   xmlns:inkscape="http://www.inkscape.org/namespaces/inkscape"
   xmlns:sodipodi="http://sodipodi.sourceforge.net/DTD/sodipodi-0.dtd"
   xmlns:xlink="http://www.w3.org/1999/xlink"
   xmlns="http://www.w3.org/2000/svg"
   xmlns:svg="http://www.w3.org/2000/svg">
  <sodipodi:namedview
     id="namedview1"
     pagecolor="#ffffff"
     bordercolor="#000000"
     borderopacity="0.25"
     inkscape:showpageshadow="2"
     inkscape:pageopacity="0.0"
     inkscape:pagecheckerboard="0"
     inkscape:deskcolor="#d1d1d1"
     inkscape:document-units="mm"
     inkscape:zoom="0.73851712"
     inkscape:cx="-119.83473"
     inkscape:cy="344.60948"
     inkscape:window-width="1920"
     inkscape:window-height="1009"
     inkscape:window-x="-8"
     inkscape:window-y="-8"
     inkscape:window-maximized="1"
     inkscape:current-layer="layer1" />
  <defs
     id="defs1">
    <linearGradient
       id="linearGradient63"
       inkscape:collect="always">
      <stop
         style="stop-color:#f36f00;stop-opacity:1;"
         offset="0"
         id="stop63" />
      <stop
         style="stop-color:#fbe726;stop-opacity:1;"
         offset="1"
         id="stop64" />
    </linearGradient>
    <inkscape:path-effect
       effect="powerstroke"
       message=""
       id="path-effect59"
       is_visible="true"
       lpeversion="1.3"
       scale_width="1"
       interpolator_type="CentripetalCatmullRom"
       interpolator_beta="0.2"
       start_linecap_type="zerowidth"
       end_linecap_type="zerowidth"
       offset_points="0.94620973,-1.5398461 | 2,0.065499999 | 3.3456051,-1.3268144"
       linejoin_type="round"
       miter_limit="4"
       not_jump="false"
       sort_points="true" />
    <inkscape:path-effect
       effect="spiro"
       id="path-effect57"
       is_visible="true"
       lpeversion="1" />
    <inkscape:path-effect
       effect="powerstroke"
       message=""
       id="path-effect55"
       is_visible="true"
       lpeversion="1.3"
       scale_width="1"
       interpolator_type="CentripetalCatmullRom"
       interpolator_beta="0.2"
       start_linecap_type="zerowidth"
       end_linecap_type="zerowidth"
       offset_points="0.80943255,1.298739 | 2.1125056,-0.14037048 | 3.3194959,1.1598996"
       linejoin_type="round"
       miter_limit="4"
       not_jump="false"
       sort_points="true" />
    <inkscape:path-effect
       effect="spiro"
       id="path-effect53"
       is_visible="true"
       lpeversion="1" />
    <inkscape:path-effect
       effect="powerstroke"
       message=""
       id="path-effect43"
       is_visible="true"
       lpeversion="1.3"
       scale_width="1"
       interpolator_type="CentripetalCatmullRom"
       interpolator_beta="0.2"
       start_linecap_type="zerowidth"
       end_linecap_type="zerowidth"
       offset_points="0.94620973,-1.5398461 | 2,0.065499999 | 3.3456051,-1.3268144"
       linejoin_type="round"
       miter_limit="4"
       not_jump="false"
       sort_points="true" />
    <inkscape:path-effect
       effect="spiro"
       id="path-effect42"
       is_visible="true"
       lpeversion="1" />
    <inkscape:path-effect
       effect="spiro"
       id="path-effect41"
       is_visible="true"
       lpeversion="1" />
    <inkscape:path-effect
       effect="powerstroke"
       message=""
       id="path-effect40"
       is_visible="true"
       lpeversion="1.3"
       scale_width="1"
       interpolator_type="CentripetalCatmullRom"
       interpolator_beta="0.2"
       start_linecap_type="zerowidth"
       end_linecap_type="zerowidth"
       offset_points="0.80943255,1.298739 | 2.1125056,-0.14037048 | 3.3194959,1.1598996"
       linejoin_type="round"
       miter_limit="4"
       not_jump="false"
       sort_points="true" />
    <inkscape:path-effect
       effect="spiro"
       id="path-effect39"
       is_visible="true"
       lpeversion="1" />
    <clipPath
       clipPathUnits="userSpaceOnUse"
       id="clipPath47">
      <path
         id="path48"
         style="fill:#ff0000;fill-opacity:1;fill-rule:nonzero;stroke:none;stroke-width:0.276294"
         d="M 12.297705,6.8064646 V 57.135176 c 0.21046,-0.09155 0.432364,-0.137459 0.654249,-0.137459 0.976699,0 1.953169,0.886992 1.953169,2.660303 v 3.873664 5.099431 c -0.0535,1.103704 0.06114,2.199474 0.171874,3.296439 0.01316,0.385765 0.09662,0.763812 0.168493,1.142566 0.506038,2.666576 -1.6209,3.653949 -2.947785,2.418458 V 122.88413 H 68.428483 V 6.8064646 Z" />
    </clipPath>
    <clipPath
       clipPathUnits="userSpaceOnUse"
       id="clipPath50">
      <path
         id="path50"
         style="fill:#ff0000;fill-opacity:1;fill-rule:nonzero;stroke:none;stroke-width:0.27533"
         d="M 64.487451,6.9237702 V 122.94408 H 125.33628 V 77.791281 c -2.17791,1.140577 -4.25727,-1.086572 -1.87633,-3.189988 0.069,-0.06093 0.19192,-0.313122 0.24119,-0.23926 0.24648,-0.208209 0.0794,-0.98007 0.11807,-1.246953 -0.018,-0.800729 -0.0435,-1.601687 -0.1024,-2.400887 -0.078,-1.015688 -0.20685,-2.027026 -0.26749,-3.043743 -0.005,-1.001318 -0.0105,-2.002882 -0.0375,-3.003949 -0.0321,-1.123495 -0.0749,-2.247194 -0.18019,-3.367239 -0.0985,-0.936789 -0.22872,-1.867828 -0.49077,-2.779675 -0.52335,-1.821106 0.30728,-2.840382 1.35086,-2.881993 0.4049,-0.01614 0.84212,0.114732 1.24455,0.403075 V 6.9237702 Z" />
    </clipPath>
    <linearGradient
       inkscape:collect="always"
       xlink:href="#linearGradient63"
       id="linearGradient64"
       x1="52.643402"
       y1="73.496254"
       x2="77.297264"
       y2="70.03138"
       gradientUnits="userSpaceOnUse" />
  </defs>
  <g
     inkscape:label="Capa 1"
     inkscape:groupmode="layer"
     id="layer1">
    <path
       style="fill:none;fill-opacity:1;stroke:#000000;stroke-width:0.131;stroke-opacity:1"
       d=""
       id="path40"
       inkscape:path-effect="#path-effect41"
       inkscape:original-d="M 99.238841,17.913148 Z" />
    <g
       id="g65">
      <path
         style="fill:#ffffff;fill-opacity:1;fill-rule:nonzero;stroke:none;stroke-width:0.131;stroke-opacity:1"
         d="m 64.487334,7.1652592 c 4.534996,-0.058351 12.448227,0.5744418 21.618162,4.1643018 4.318265,1.690521 8.313428,3.797173 12.007776,6.205886 2.228328,1.452866 4.473478,3.091762 6.668318,4.95426 5.30607,4.50263 10.12999,10.162889 13.82183,16.926397 3.59381,6.583908 5.87987,13.803555 6.53645,21.122165 0.16109,1.812779 0.22119,3.612106 0.18686,5.387145 -0.11815,6.108334 -1.361,12.257444 -3.59762,18.096884 -2.94634,7.692403 -7.42644,14.380009 -12.73946,19.773352 -3.73948,3.79602 -7.77067,6.83624 -11.70489,9.30332 -2.348469,1.47269 -4.821926,2.83606 -7.436376,4.0572 -9.558789,4.46466 -17.957875,5.58033 -22.85321,5.72803 4.790525,0.19675 13.535883,0.1394 23.645418,-3.89443 2.766719,-1.10395 5.404423,-2.4198 7.863439,-3.91726 4.134709,-2.5179 8.220569,-5.84364 11.871899,-9.98618 5.18953,-5.887664 9.18022,-13.065441 11.68167,-20.949147 1.90137,-5.992479 2.86767,-12.15133 2.98844,-18.217278 0.0352,-1.765851 -6.3e-4,-3.556578 -0.11837,-5.365292 -0.46819,-7.287187 -2.22593,-14.652928 -5.38253,-21.608048 -3.23886,-7.136383 -7.74965,-13.386338 -13.13189,-18.307529 -2.2224,-2.032022 -4.54433,-3.792903 -6.893812,-5.287527 C 95.636655,12.881479 91.31778,10.89269 86.756007,9.472325 77.054376,6.4516015 68.938547,6.7873686 64.487334,7.1652592 Z"
         id="path39"
         transform="matrix(0.92345905,0,0,1,11.742918,1.0739342)"
         clip-path="url(#clipPath50)" />
      <path
         style="fill:#ffffff;fill-opacity:1;fill-rule:nonzero;stroke:none;stroke-width:0.131;stroke-opacity:1"
         d="m 61.62123,122.8842 c -3.243678,-0.37652 -8.917279,-1.18113 -15.610944,-3.86955 -6.784894,-2.72507 -12.927688,-6.72235 -17.749132,-11.54707 -0.50699,-0.50733 -1.001548,-1.02692 -1.483444,-1.55806 -8.638379,-9.521216 -13.182382,-22.668404 -14.173216,-36.053487 -0.549763,-7.319221 0.07521,-15.252309 2.480601,-23.284755 2.333438,-7.792161 6.134629,-14.941609 11.127764,-20.886309 3.891423,-4.63303 8.249161,-8.230633 12.485553,-10.850935 2.086941,-1.290818 4.287847,-2.43892 6.568226,-3.43242 C 55.133471,7.1028977 63.774399,6.7935338 68.428226,6.8069962 63.664872,7.2043884 55.493833,8.7454912 46.264313,13.505122 44.134615,14.6034 42.089412,15.798394 40.1175,17.07634 c -3.991227,2.586611 -8.252304,5.862738 -12.222599,10.09953 -5.092258,5.434064 -9.337662,12.073021 -12.131669,19.622039 -2.874928,7.767656 -3.918056,15.71974 -3.289318,23.068614 1.188767,13.720393 8.122487,25.050635 16.54978,33.963947 0.466625,0.49353 0.939744,0.98117 1.418695,1.46301 4.597291,4.62503 9.924481,8.81409 16.288267,12.15961 6.209047,3.26416 11.667701,4.78089 14.890574,5.43111 z"
         id="path41"
         transform="matrix(0.91702532,0,0,1,-5.7866048,1.0747889)"
         clip-path="url(#clipPath47)" />
      <path
         style="fill:#ffffff;fill-opacity:1;fill-rule:nonzero;stroke:none;stroke-width:0.131;stroke-opacity:1"
         d="m 64.487334,7.1652592 c 4.534996,-0.058351 12.448227,0.5744418 21.618162,4.1643018 4.318265,1.690521 8.313428,3.797173 12.007776,6.205886 2.228328,1.452866 4.473478,3.091762 6.668318,4.95426 5.30607,4.50263 10.12999,10.162889 13.82183,16.926397 3.59381,6.583908 5.87987,13.803555 6.53645,21.122165 0.16109,1.812779 0.22119,3.612106 0.18686,5.387145 -0.11815,6.108334 -1.361,12.257444 -3.59762,18.096884 -2.94634,7.692403 -7.42644,14.380009 -12.73946,19.773352 -3.73948,3.79602 -7.77067,6.83624 -11.70489,9.30332 -2.348469,1.47269 -4.821926,2.83606 -7.436376,4.0572 -9.558789,4.46466 -17.957875,5.58033 -22.85321,5.72803 4.790525,0.19675 13.535883,0.1394 23.645418,-3.89443 2.766719,-1.10395 5.404423,-2.4198 7.863439,-3.91726 4.134709,-2.5179 8.220569,-5.84364 11.871899,-9.98618 5.18953,-5.887664 9.18022,-13.065441 11.68167,-20.949147 1.90137,-5.992479 2.86767,-12.15133 2.98844,-18.217278 0.0352,-1.765851 -6.3e-4,-3.556578 -0.11837,-5.365292 -0.46819,-7.287187 -2.22593,-14.652928 -5.38253,-21.608048 -3.23886,-7.136383 -7.74965,-13.386338 -13.13189,-18.307529 -2.2224,-2.032022 -4.54433,-3.792903 -6.893812,-5.287527 C 95.636655,12.881479 91.31778,10.89269 86.756007,9.472325 77.054376,6.4516015 68.938547,6.7873686 64.487334,7.1652592 Z"
         id="path51"
         transform="matrix(0.92345905,0,0,1,11.742918,1.0747889)"
         clip-path="url(#clipPath50)" />
      <path
         style="fill:#ffffff;fill-opacity:1;fill-rule:nonzero;stroke:none;stroke-width:0.131;stroke-opacity:1"
         d="m 61.62123,122.8842 c -3.243678,-0.37652 -8.917279,-1.18113 -15.610944,-3.86955 -6.784894,-2.72507 -12.927688,-6.72235 -17.749132,-11.54707 -0.50699,-0.50733 -1.001548,-1.02692 -1.483444,-1.55806 -8.638379,-9.521216 -13.182382,-22.668404 -14.173216,-36.053487 -0.549763,-7.319221 0.07521,-15.252309 2.480601,-23.284755 2.333438,-7.792161 6.134629,-14.941609 11.127764,-20.886309 3.891423,-4.63303 8.249161,-8.230633 12.485553,-10.850935 2.086941,-1.290818 4.287847,-2.43892 6.568226,-3.43242 C 55.133471,7.1028977 63.774399,6.7935338 68.428226,6.8069962 63.664872,7.2043884 55.493833,8.7454912 46.264313,13.505122 44.134615,14.6034 42.089412,15.798394 40.1175,17.07634 c -3.991227,2.586611 -8.252304,5.862738 -12.222599,10.09953 -5.092258,5.434064 -9.337662,12.073021 -12.131669,19.622039 -2.874928,7.767656 -3.918056,15.71974 -3.289318,23.068614 1.188767,13.720393 8.122487,25.050635 16.54978,33.963947 0.466625,0.49353 0.939744,0.98117 1.418695,1.46301 4.597291,4.62503 9.924481,8.81409 16.288267,12.15961 6.209047,3.26416 11.667701,4.78089 14.890574,5.43111 z"
         id="path52"
         transform="matrix(0.91702532,0,0,1,-5.7866048,1.1330296)"
         clip-path="url(#clipPath47)" />
      <path
         d="m 23.119331,28.502498 h 7.239 q 0.5715,0 0.5715,0.5715 0,0.5715 -0.5715,0.5715 h -2.286 q -0.6477,0 -0.381,0.5715 l 8.8011,22.859999 q 0.0762,0.2286 0.2286,0.2286 0.1524,0 0.2286,-0.2286 L 45.75073,30.216998 q 0.2667,-0.5715 -0.381,-0.5715 h -2.286 q -0.5715,0 -0.5715,-0.5715 0,-0.5715 0.5715,-0.5715 h 7.239 q 0.5715,0 0.5715,0.5715 0,0.5715 -0.5715,0.5715 h -2.4765 q -0.4572,0 -0.762,0.5715 l -9.524999,24.764999 q -0.1524,0.5715 -0.8382,0.5715 -0.6858,0 -0.8382,-0.5715 l -9.525,-24.764999 q -0.3048,-0.5715 -0.762,-0.5715 h -2.4765 q -0.5715,0 -0.5715,-0.5715 0,-0.5715 0.5715,-0.5715 z m 41.414725,24.002999 q 0.6096,-0.4572 0.9144,-0.762 0.3429,-0.3048 0.5334,-0.1905 0.1905,0.0762 0.4572,0.4191 0.3048,0.3048 -0.1524,0.6858 -1.3716,1.1811 -3.1623,2.0574 -1.7907,0.8382 -4.572,0.8382 -4.0386,0 -6.515099,-2.7813 -2.4384,-2.7813 -2.4384,-7.1247 0,-4.3434 2.4384,-7.1247 2.476499,-2.781299 6.438899,-2.781299 4.0005,0 6.5151,2.514599 2.5146,2.5146 2.5146,6.0579 v 0.5715 q 0,1.143 -1.143,1.143 H 51.351457 q -0.6477,0 -0.5715,0.5715 0.2286,3.3147 2.247899,5.5626 2.0574,2.2479 5.6007,2.2479 3.5814,0 5.9055,-1.905 z m -13.715999,-8.0772 q 0,0.4572 0.5334,0.4572 h 14.439899 q 0.5715,0 0.5715,-0.5715 0,-3.048 -2.2479,-5.2197 -2.2098,-2.209799 -5.6388,-2.209799 -3.3909,0 -5.5245,2.400299 -2.133599,2.4003 -2.133599,5.1435 z m 32.689777,8.0772 q 0.381,-0.381 0.6858,-0.0762 0.3048,0.3048 0.3048,0.4953 0.0381,0.1905 -0.2667,0.4953 -0.9144,0.9144 -1.8288,1.3716 -2.362199,0.8001 -2.705099,0.762 -0.3429,0 -0.381,0 -2.667,0 -4.191,-1.7145 -1.524,-1.7145 -1.524,-4.953 v -11.049 q 0,-0.571499 -0.5715,-0.571499 h -2.667 q -0.5715,0 -0.5715,-0.5715 0,-0.5715 0.5715,-0.5715 h 2.667 q 0.5715,0 0.5715,-0.5715 v -6.477 q 0,-0.5715 0.5715,-0.5715 0.5715,0 0.5715,0.5715 v 6.477 q 0,0.5715 0.5715,0.5715 h 6.477 q 0.571499,0 0.571499,0.5715 0,0.5715 -0.571499,0.5715 h -6.477 q -0.5715,0 -0.5715,0.571499 v 11.049 q 0,2.7432 1.2192,4.1529 1.2192,1.3716 3.3528,1.3716 2.1717,0 4.190999,-1.905 z m 17.106896,-6.6675 q 0,-0.5715 -0.5715,-0.5715 h -6.286502 q -3.314699,0 -4.914899,1.2954 -1.5621,1.2954 -1.5621,3.3147 0,1.9812 1.4478,3.2766 1.4859,1.2573 4.457699,1.2573 3.6957,0 6.5151,-3.7338 0.495302,-0.6477 0.914402,-1.4097 z M 94.671128,35.741498 q 3.2004,0 5.1435,1.8288 1.943102,1.790699 1.943102,4.457699 v 11.43 q 0,0.5715 0.5715,0.5715 h 2.667 q 0.5715,0 0.5715,0.5715 0,0.5715 -0.5715,0.5715 h -3.81 q -0.5715,0 -0.5715,-0.5715 v -2.1336 q 0,-0.381 -0.1524,-0.5334 -0.1524,-0.1524 -0.4572,0.1524 -1.028702,1.2954 -2.857502,2.4003 -1.8288,1.0668 -3.81,1.0668 -3.543299,0 -5.372099,-1.5621 -1.8288,-1.6002 -1.8288,-4.1148 0,-2.5146 2.0955,-4.1148 2.0955,-1.6383 5.524499,-1.6383 h 6.286502 q 0.5715,0 0.5715,-0.5715 v -1.524 q 0,-2.2098 -1.676402,-3.6576 -1.6764,-1.485899 -4.1148,-1.485899 -2.438399,0 -4.000499,0.6858 -1.5621,0.647699 -2.2098,1.142999 -0.6096,0.4953 -0.9525,0.0381 -0.3048,-0.4572 0.1143,-0.762 2.7432,-2.247899 6.896099,-2.247899 z"
         id="text59"
         style="font-size:38.1px;line-height:0px;font-family:'Nixie One';-inkscape-font-specification:'Nixie One, Normal';fill:#ffffff;stroke:#ffffff;stroke-width:0.431"
         aria-label="Veta&#10;" />
      <path
         d="m 53.730837,78.431318 q 0,2.7051 1.7526,4.4196 1.7907,1.6764 4.533899,1.6764 4.953,0 8.3439,-4.2291 0.2286,-0.2667 0.2286,-0.4572 0,-0.2286 -0.1905,-0.4191 l -6.6294,-7.4676 q -0.1524,-0.2667 -0.4191,-0.2667 -0.2286,0 -0.5334,0.0762 -7.086599,1.905 -7.086599,6.6675 z M 63.827336,57.857319 q 2.1717,0 3.8862,1.0287 1.7526,1.0287 2.7432,2.6289 0.2667,0.419099 -0.2286,0.723899 -0.4572,0.2667 -0.8382,-0.2286 -1.1049,-1.409699 -2.4003,-2.209799 -1.2954,-0.8001 -3.5433,-0.8001 -2.2479,0 -3.81,1.3335 -1.523999,1.295399 -1.523999,3.238499 0,2.4765 2.895599,5.715 l 8.0772,9.144 q 0.3429,0.381 0.6096,0 l 4.4958,-6.7818 q 0.3429,-0.4191 0.8001,-0.1143 0.4953,0.3048 0.1143,0.8001 l -4.6101,6.8961 q -0.3048,0.4191 0.0762,0.8382 l 2.7432,3.1242 q 0.4953,0.5715 0.9525,0.5715 h 2.5146 q 0.5715,0 0.5715,0.5715 0,0.5715 -0.5715,0.5715 h -3.048 q -0.4953,0 -0.9906,-0.5715 l -2.8575,-3.2385 q -0.4191,-0.381 -0.6858,0 -3.6195,4.572 -9.1821,4.572 -3.238499,0 -5.333999,-1.9812 -2.0955,-1.9812 -2.0955,-5.0673 0,-3.0861 1.9431,-4.9911 1.9431,-1.9431 5.524499,-2.7813 0.5715,-0.1905 0.0381,-0.8001 -1.3335,-1.6002 -2.247899,-3.1242 -0.8763,-1.5621 -0.8763,-3.3528 0,-2.628899 1.828799,-4.152899 1.8288,-1.5621 5.0292,-1.5621 z"
         id="text61"
         style="font-size:38.1px;line-height:0px;font-family:'Nixie One';-inkscape-font-specification:'Nixie One, Normal';fill:url(#linearGradient64);stroke-width:0.831"
         aria-label="&amp;&#10;" />
      <path
         d="m 34.567768,110.70325 q -0.5715,0 -0.5715,-0.5715 0,-0.5715 0.5715,-0.5715 h 2.666999 q 0.5715,0 0.5715,-0.5715 V 85.747748 q 0,-0.5715 -0.5715,-0.5715 h -2.666999 q -0.5715,0 -0.5715,-0.5715 0,-0.5715 0.5715,-0.5715 h 8.381999 q 0.5715,0 0.5715,0.5715 0,0.5715 -0.5715,0.5715 h -3.429 q -0.5715,0 -0.5715,0.5715 v 23.241002 q 0,0.5715 0.5715,0.5715 h 12.192 q 0.5715,0 0.5715,-0.5715 v -4.191 q 0,-0.5715 0.5715,-0.5715 0.5715,0 0.5715,0.5715 v 5.334 q 0,0.5715 -0.5715,0.5715 z M 54.532167,91.653248 h 3.81 q 0.5715,0 0.5715,0.5715 v 11.239502 q 0,3.2385 1.6764,4.8768 1.676399,1.6002 4.571999,1.6002 2.8956,0 5.4483,-2.5527 1.143,-1.1811 2.0193,-2.5908 V 93.367748 q 0,-0.5715 -0.5715,-0.5715 h -2.667 q -0.5715,0 -0.5715,-0.5715 0,-0.5715 0.5715,-0.5715 h 3.81 q 0.5715,0 0.5715,0.5715 v 16.764002 q 0,0.5715 0.5715,0.5715 h 2.667 q 0.5715,0 0.5715,0.5715 0,0.5715 -0.5715,0.5715 h -3.81 q -0.5715,0 -0.5715,-0.5715 v -2.1336 q 0,-0.381 -0.1524,-0.5334 -0.1524,-0.1524 -0.4572,0.1524 -3.0861,3.4671 -6.7056,3.4671 -3.619499,0 -5.600699,-1.9431 -1.9431,-1.9812 -1.9431,-5.6769 V 93.367748 q 0,-0.5715 -0.5715,-0.5715 h -2.667 q -0.5715,0 -0.5715,-0.5715 0,-0.5715 0.5715,-0.5715 z m 25.184082,17.907002 h 2.286 q 0.4572,0 0.9525,-0.5715 l 5.4483,-7.5819 q 0.2286,-0.3429 0,-0.6858 l -5.2578,-7.353302 q -0.3429,-0.5715 -0.9525,-0.5715 h -2.286 q -0.5715,0 -0.5715,-0.5715 0,-0.5715 0.5715,-0.5715 h 7.239 q 0.5715,0 0.5715,0.5715 0,0.5715 -0.5715,0.5715 h -2.286 q -0.3048,0 -0.4572,0.1905 -0.1143,0.1524 0.0762,0.381 l 4.572,6.3627 q 0.2667,0.381002 0.5334,0 l 4.610099,-6.3627 q 0.1905,-0.2286 0.0381,-0.381 -0.1143,-0.1905 -0.4191,-0.1905 h -2.285999 q -0.5715,0 -0.5715,-0.5715 0,-0.5715 0.5715,-0.5715 h 7.238999 q 0.5715,0 0.5715,0.5715 0,0.5715 -0.5715,0.5715 h -2.286 q -0.6096,0 -0.9525,0.5715 l -5.257799,7.353302 q -0.2286,0.3429 0,0.6858 l 5.448299,7.5819 q 0.4953,0.5715 0.9525,0.5715 h 2.286 q 0.5715,0 0.5715,0.5715 0,0.5715 -0.5715,0.5715 h -7.238999 q -0.5715,0 -0.5715,-0.5715 0,-0.5715 0.5715,-0.5715 h 2.285999 q 0.3048,0 0.4191,-0.1524 0.1524,-0.1905 -0.0381,-0.4191 l -4.800599,-6.6294 q -0.2667,-0.381 -0.5334,0 l -4.7625,6.6294 q -0.1905,0.2286 -0.0762,0.4191 0.1524,0.1524 0.4572,0.1524 h 2.286 q 0.5715,0 0.5715,0.5715 0,0.5715 -0.5715,0.5715 h -7.239 q -0.5715,0 -0.5715,-0.5715 0,-0.5715 0.5715,-0.5715 z"
         id="text63"
         style="font-size:38.1px;line-height:0px;font-family:'Nixie One';-inkscape-font-specification:'Nixie One, Normal';fill:#ffffff;stroke:#ffffff;stroke-width:0.431"
         aria-label="Lux" />
    </g>
  </g>
</svg>
